<svg width="665" height="215" viewBox="0 0 665 215" fill="none" xmlns="http://www.w3.org/2000/svg">
<rect y="86" width="42.9999" height="42.9999" fill="#039855"/>
<rect x="128.999" y="129" width="42.9999" height="42.9999" transform="rotate(180 128.999 129)" fill="#027A48"/>
<path d="M43 85.9999L85.9999 43V85.9999L43 129V85.9999Z" fill="#A6F4C5"/>
<path d="M85.9995 128.998L42.9996 171.998L42.9996 128.998L85.9995 85.9982L85.9995 128.998Z" fill="#6CE9A6"/>
<path d="M0 85.9999L85.9999 0V42.9999L42.9999 85.9999H0Z" fill="#32D583"/>
<path d="M128.999 128.998L42.9994 214.998L42.9994 171.998L85.9993 128.998L128.999 128.998Z" fill="#12B76A"/>
<path fill-rule="evenodd" clip-rule="evenodd" d="M664.119 135.838V150.391H596.889V135.838H611.879H664.119ZM611.879 114.612H650.707V100.388H611.879H596.889V114.612H611.879ZM664.119 79.1615H611.879H596.889V64.6094H664.119V79.1615Z" fill="#3AAA6D"/>
<path d="M497.886 107.5C497.886 95.355 502.591 85.1794 511.891 76.9733C521.192 68.6578 532.352 64.5 545.263 64.5C553.25 64.5 560.8 66.2506 567.912 69.7519C575.133 73.2532 580.823 78.1768 585.09 84.4135L572.835 92.729C566.818 84.0852 556.314 79.1616 545.263 79.1616C536.291 79.1616 528.632 81.8969 522.286 87.4771C516.049 93.0572 512.876 99.7316 512.876 107.5C512.876 115.268 516.049 121.943 522.286 127.523C528.632 133.103 536.291 135.838 545.263 135.838C555.767 135.838 565.723 131.352 571.96 123.475V117.785H541.433V103.889H586.622V128.508C576.665 143.169 562.879 150.5 545.263 150.5C532.242 150.5 521.082 146.342 511.782 138.027C502.482 129.711 497.886 119.536 497.886 107.5Z" fill="#3AAA6D"/>
<path fill-rule="evenodd" clip-rule="evenodd" d="M401.669 150.391H444.45C456.267 150.391 466.333 146.233 474.758 137.808C483.183 129.383 487.45 119.317 487.45 107.5C487.45 95.6832 483.183 85.617 474.758 77.1921C466.333 68.7671 456.267 64.6094 444.45 64.6094H401.669V79.271H416.659H444.45C452.219 79.271 458.784 82.0063 464.254 87.5865C469.835 93.0572 472.57 99.7315 472.57 107.5C472.57 115.268 469.835 121.833 464.254 127.413C458.784 132.994 452.219 135.729 444.45 135.729H416.659V84.7414H401.669V150.391Z" fill="#3AAA6D"/>
<path d="M391.34 64.6094V150.391H376.35V64.6094H391.34Z" fill="#3AAA6D"/>
<path d="M317.203 119.317L346.417 150.391H365.784L336.351 118.989C344.01 118.66 350.356 115.925 355.389 110.782C360.532 105.64 363.048 99.2939 363.048 91.9631C363.048 84.4134 360.313 78.0674 354.951 72.7061C349.59 67.3447 343.025 64.6094 335.476 64.6094H279.565V78.8333H294.555H334.819C338.539 78.8333 341.712 80.1463 344.229 82.6628C346.745 85.1794 348.058 88.243 348.058 91.8537C348.058 95.4643 346.745 98.528 344.229 101.044C341.712 103.561 338.539 104.874 334.819 104.874H294.555H279.565V150.391H294.555V119.317H317.203Z" fill="#3AAA6D"/>
<path fill-rule="evenodd" clip-rule="evenodd" d="M240.13 64.6094H184V78.9427H198.99H239.801C245.819 78.9427 250.415 83.8664 250.415 89.6654C250.415 95.4643 245.819 100.497 239.801 100.497H198.99H184V150.391H244.397C251.399 150.391 257.308 147.983 262.231 143.06C267.155 138.136 269.672 132.228 269.672 125.335C269.672 121.286 268.468 117.238 266.17 113.299C263.873 109.251 261.137 106.625 257.964 105.421C260.043 104.436 261.794 102.248 263.216 99.075C264.638 95.902 265.404 92.729 265.404 89.6654C265.404 82.7722 262.888 76.8638 257.964 71.9402C253.04 67.0165 247.132 64.6094 240.13 64.6094ZM243.959 136.057H198.99V114.503H243.959C249.977 114.503 254.791 119.317 254.791 125.335C254.791 128.179 253.697 130.696 251.618 132.884C249.539 134.963 246.913 136.057 243.959 136.057Z" fill="#3AAA6D"/>
</svg>
